#!OML:ASF F:\VICON\USERDATA\INSTALL\rory3\rory3.ASF
:FULLY-SPECIFIED
:DEGREES
99
root 0.6480780752278825 17.75457918625188 45.97520955550091 -1.9181122734973104 -0.7373576397974126 3.073768648762519
lfemur 7.595403438788063 -2.910062655512069 -28.13159732270404
ltibia 15.36602611415617
lfoot -15.509537233421888 2.0384862607807417
ltoes -1.1673129974386924
rfemur -29.432728019362425 3.714741632294472 16.878321474635147
rtibia 28.60517995574216
rfoot -9.630027700220579 -15.6047674380891
rtoes -0.5300258237505191
lowerback 9.536290547338679 -0.6595597628892519 -4.197476458409854
upperback 0.6801048464643115 -1.306092575382995 0.8173184210643518
thorax -4.5947740987160355 -0.5567502151004273 3.275752721156078
lowerneck -16.53282214084888 -2.7520557021705274 -3.5297742130602376
upperneck 20.28678009804225 -3.4809129118054467 2.1738504192822448
head 9.1620002610056 -1.6511013251449052 0.8493104828241216
lclavicle -1.9438913895203602e-15 9.136725335040989e-16
lhumerus -21.07698787828462 -4.786397196817352 82.2559938617279
lradius 27.46051992318625
lwrist 7.951174020076099
lhand -27.860323231358326 22.339743097487013
lfingers 7.12502
lthumb -1.2510463450940088 52.31132399931885
rclavicle -1.9438913895203602e-15 9.136725335040989e-16
rhumerus -29.95434302016158 -16.916869140151018 -80.42974610158333
rradius 25.81734305247023
rwrist 5.662643121976272
rhand -16.607181634897266 23.41790674202387
rfingers 7.12502
rthumb 9.614333430462654 -6.340488886876652
100
root 0.5600965069569623 17.696994272076864 45.67655477059854 -1.52741120752165 -0.22805848657954475 3.1684450416653767
lfemur 10.145186619708657 -3.0443494628109384 -28.323040245576212
ltibia 12.695843790948736
lfoot -15.613971588311248 1.0127095228083949
ltoes -3.676482032699843
rfemur -29.266725122303075 5.263804274083327 15.701941222560372
rtibia 20.682530760829515
rfoot -10.286247619842698 -16.68802384483824
rtoes -2.0708357148471843
lowerback 9.302470705514255 -0.9630004395119521 -4.786165831996644
upperback 0.5652356187252259 -1.757192814526488 0.8752280001141203
thorax -4.554911194247693 -0.7686553587489973 3.564158115956618
lowerneck -16.629939932411624 -2.7583385454697016 -3.5519922798945567
upperneck 20.29351468109546 -3.4954580268237057 2.2045267198836376
head 9.176875465863763 -1.6548047589576604 0.8545027192080683
lclavicle -2.4899354086229593e-15 4.120003605471021e-16
lhumerus -19.949456695360283 -5.728512154849757 82.05240091814919
lradius 28.542319978095158
lwrist 8.337337877039978
lhand -28.23020128437855 21.83712646015879
lfingers 7.12502
lthumb -1.608277389918321 51.80466169978924
rclavicle -2.4899354086229593e-15 4.120003605471021e-16
rhumerus -30.586421850629158 -18.035369996777717 -79.98753606194323
rradius 24.921602269133345
rwrist 6.244625432433538
rhand -16.770217299126053 24.03555692108033
rfingers 7.12502
rthumb 9.457015745348922 -5.729091947380098
101
root 0.4950315459215244 17.64128474379441 47.22136985587355 -1.2894852096336664 0.3220046876801499 3.336613058105448
lfemur 13.310201508505372 -3.4044614403092397 -27.854580960596167
ltibia 13.268133525679389
lfoot -14.956099004868726 0.4979482502814039
ltoes -6.693894107400839
rfemur -28.350843893071364 5.929282029539829 15.999437569128622
rtibia 18.86527512385477
rfoot -9.697167456865722 -15.209464971682294
rtoes -2.8255263473664978
lowerback 9.259417186009275 -1.0749945547780713 -4.813073926036533
upperback 0.5178474676957373 -1.9037817319629147 1.0702238706306404
thorax -4.523043312570775 -0.838945134695184 3.959418842091293
lowerneck -16.726612156962435 -2.740237240349874 -3.5096887125485847
upperneck 20.408862249426655 -3.4621660382899733 2.1987134486776534
head 9.236847445044484 -1.643296673257845 0.8529337387341989
lclavicle -1.6940714934064663e-15 1.1456260534656142e-15
lhumerus -18.78393697830255 -5.848455035372395 82.0861170436698
lradius 29.722438048298773
lwrist 8.689546299976213
lhand -28.713256013881363 21.333312802539137
lfingers 7.12502
lthumb -2.074785087592864 51.294959421205014
rclavicle -1.6940714934064663e-15 1.1456260534656142e-15
rhumerus -31.004037380422393 -19.05769283313816 -79.11447617275348
rradius 24.122303353744257
rwrist 7.432735012007658
rhand -16.9130412610393 24.50896028740217
rfingers 7.12502
rthumb 9.319211758691763 -5.266022753466522
102
root 0.4080541295930421 17.582197946167234 46.86576759509797 -1.3492671870390027 0.31804027884667496 2.8450576851291003
lfemur 14.395391189969075 -4.281620301143988 -27.71214824599067
ltibia 14.281396356656764
lfoot -14.357951010011739 -0.6358478026129131
ltoes -10.915204081167744
rfemur -28.927018022683 5.495663041560427 16.780947219496895
rtibia 19.674937621843572
rfoot -8.832878418038272 -12.637181199101626
rtoes -3.1462060745889002
lowerback 9.232305982563277 -1.246629933421254 -4.809781553689917
upperback 0.4740614269906328 -2.1193129965485684 1.2643728552865285
thorax -4.554442588849148 -0.9428295844262744 4.017321494384714
lowerneck -16.86689986895617 -2.718895650063725 -3.4853234198601184
upperneck 20.52611371335733 -3.4195518916810292 2.00911687437652
head 9.28851250249958 -1.6319835410785481 0.794765432086361
lclavicle -2.32983221541015e-15 5.602804201447294e-16
lhumerus -18.673074376765328 -5.934951705520288 82.14706078902965
lradius 30.323417543609153
lwrist 8.611112955486398
lhand -29.54123690407572 20.49121871281481
lfingers 7.12502
lthumb -2.874395744091389 50.44551365913262
rclavicle -2.32983221541015e-15 5.602804201447294e-16
rhumerus -31.72038038102996 -20.764569711903086 -78.30119237593422
rradius 23.028902243417047
rwrist 8.576351897522892
rhand -17.149625734625882 24.374671655310554
rfingers 7.12502
rthumb 9.090927636640465 -5.409460879324074
